HIERARCHY
ROOT root
{
	OFFSET 0.000000 0.000000 0.000000
	CHANNELS 6 Xposition Yposition Zposition Zrotation Yrotation Xrotation
	JOINT lhip
	{
		OFFSET 0.058581 -0.082280 -0.017664
		CHANNELS 3 Zrotation Yrotation Xrotation
		JOINT lknee
		{
			OFFSET 0.043451 -0.386469 0.008037
			CHANNELS 3 Zrotation Yrotation Xrotation
			JOINT lankle
			{
				OFFSET -0.014790 -0.426874 -0.037428
				CHANNELS 3 Zrotation Yrotation Xrotation
				JOINT ltoe
				{
					OFFSET 0.041054 -0.060286 0.122042
					CHANNELS 3 Zrotation Yrotation Xrotation
					End Site
					{
						OFFSET 0.000000 0.000000 0.000000
					}
				}
			}
		}
	}
	JOINT rhip
	{
		OFFSET -0.060310 -0.090513 -0.013543
		CHANNELS 3 Zrotation Yrotation Xrotation
		JOINT rknee
		{
			OFFSET -0.043257 -0.383688 -0.004843
			CHANNELS 3 Zrotation Yrotation Xrotation
			JOINT rankle
			{
				OFFSET 0.019056 -0.420046 -0.034562
				CHANNELS 3 Zrotation Yrotation Xrotation
				JOINT rtoe
				{
					OFFSET -0.034840 -0.062106 0.130323
					CHANNELS 3 Zrotation Yrotation Xrotation
					End Site
					{
						OFFSET 0.000000 0.000000 0.000000
					}
				}
			}
		}
	}
	JOINT lowerback
	{
		OFFSET 0.004439 0.124404 -0.038385
		CHANNELS 3 Zrotation Yrotation Xrotation
		JOINT upperback
		{
			OFFSET 0.004488 0.137956 0.026820
			CHANNELS 3 Zrotation Yrotation Xrotation
			JOINT chest
			{
				OFFSET -0.002265 0.056032 0.002855
				CHANNELS 3 Zrotation Yrotation Xrotation
				JOINT lowerneck
				{
					OFFSET -0.013390 0.211636 -0.033468
					CHANNELS 3 Zrotation Yrotation Xrotation
					JOINT upperneck
					{
						OFFSET 0.010113 0.088937 0.050410
						CHANNELS 3 Zrotation Yrotation Xrotation
						End Site
						{
							OFFSET 0.000000 0.000000 0.000000
						}
					}
				}
				JOINT lclavicle
				{
					OFFSET 0.071702 0.114000 -0.018898
					CHANNELS 3 Zrotation Yrotation Xrotation
					JOINT lshoulder
					{
						OFFSET 0.122921 0.045205 -0.019046
						CHANNELS 3 Zrotation Yrotation Xrotation
						JOINT lelbow
						{
							OFFSET 0.255332 -0.015649 -0.022946
							CHANNELS 3 Zrotation Yrotation Xrotation
							JOINT lwrist
							{
								OFFSET 0.265709 0.012698 -0.007375
								CHANNELS 3 Zrotation Yrotation Xrotation
								End Site
								{
									OFFSET 0.000000 0.000000 0.000000
								}
							}
						}
					}
				}
				JOINT rclavicle
				{
					OFFSET -0.082954 0.112472 -0.023707
					CHANNELS 3 Zrotation Yrotation Xrotation
					JOINT rshoulder
					{
						OFFSET -0.113228 0.046853 -0.008472
						CHANNELS 3 Zrotation Yrotation Xrotation
						JOINT relbow
						{
							OFFSET -0.260127 -0.014369 -0.031269
							CHANNELS 3 Zrotation Yrotation Xrotation
							JOINT rwrist
							{
								OFFSET -0.269108 0.006794 -0.006027
								CHANNELS 3 Zrotation Yrotation Xrotation
								End Site
								{
									OFFSET 0.000000 0.000000 0.000000
								}
							}
						}
					}
				}
			}
		}
	}
}
MOTION
Frames: 12
Frame Time: 0.033333
0.031874 0.228777 0.999440 88.983782 0.552463 90.824596 7.091767 2.780281 -0.752216 -3.280035 -4.415541 4.262011 -0.151408 5.183264 -6.021700 0.000000 -0.000000 0.000000 -5.254871 -3.068895 -1.682760 0.445298 0.830213 4.690354 2.943937 -2.841440 -5.770414 0.000000 -0.000000 0.000000 0.257781 2.328439 7.388198 -1.236290 -3.037169 3.082121 -1.085572 -0.827187 -7.476398 -2.528547 -10.426376 0.460142 3.649470 -9.972889 -0.363564 -30.098775 -10.436994 7.924675 -49.805032 -6.023751 13.298173 0.340611 -45.293402 22.978703 1.034474 -11.726155 -4.047815 22.051412 14.949343 6.055630 54.709633 8.151226 25.484674 31.396536 72.335376 61.556987 -0.082285 11.292225 5.109912 
0.030833 0.227143 1.000049 88.689587 0.908151 90.075635 7.646238 2.958252 0.113665 -3.504283 -4.681728 4.242361 -0.433915 5.578142 -6.110420 0.000000 -0.000000 0.000000 -4.475319 -2.726563 -0.930857 -0.029069 1.146975 4.591766 3.012103 -3.024432 -5.844775 0.000000 -0.000000 0.000000 0.333303 1.666351 9.153119 -1.449319 -2.442196 1.842046 -0.851777 -0.472733 -7.270783 -2.372097 -10.255908 0.160040 3.729036 -9.253218 -0.095800 -30.262504 -10.075568 7.705834 -50.266877 -5.050999 12.169249 2.254292 -43.945681 19.975530 1.398433 -10.393923 -4.730352 21.918272 14.901268 5.639519 56.178689 7.091289 24.788277 19.264680 69.795094 48.806551 0.239498 10.416477 5.601920 
0.033682 0.228141 0.998276 89.709633 0.592825 90.899898 7.166266 2.094527 -0.825713 -3.431536 -4.902666 4.186400 -0.391143 5.674402 -5.909444 0.000000 -0.000000 0.000000 -5.213322 -3.833763 -1.217354 0.484604 1.174118 4.097301 3.262330 -3.231925 -5.527554 0.000000 -0.000000 0.000000 0.329152 2.050932 7.164674 -1.542110 -3.348504 2.017531 -1.080249 -1.001295 -6.220525 -2.296652 -9.782615 0.412509 4.022290 -8.995742 -0.426757 -29.780418 -8.516920 7.846538 -50.814611 -4.957103 11.659593 3.894891 -42.681588 18.240530 2.542983 -10.217258 -7.478903 22.261403 13.185282 5.679998 56.958291 7.382311 23.831490 11.643896 65.601460 41.206947 0.835949 9.032631 6.033773 
0.034931 0.228347 0.998284 90.191840 0.739559 90.792014 7.268268 1.865115 -0.773311 -3.416877 -5.395611 4.221642 -0.371416 5.900382 -5.993081 0.000000 -0.000000 0.000000 -5.277772 -4.262973 -0.821036 0.705734 1.330463 3.842073 3.407562 -3.455584 -5.366702 0.000000 -0.000000 0.000000 0.669321 1.870512 7.053614 -1.652611 -3.572699 2.038377 -1.203606 -1.146147 -5.931796 -2.137863 -9.287875 0.261482 4.252742 -8.458452 -0.688343 -29.781153 -7.193360 7.808896 -50.902676 -4.009968 10.754113 5.994385 -41.372853 15.677782 2.965566 -9.266448 -8.494394 22.734197 12.019220 5.655317 57.422512 7.173548 22.239742 3.584946 59.161563 32.193520 1.169352 7.183900 6.908421 
0.034491 0.226865 0.998130 89.641563 0.742934 90.688571 7.356116 2.058842 -0.507979 -3.476879 -5.377606 4.046364 -0.529122 6.234841 -5.910344 0.000000 -0.000000 0.000000 -5.067006 -3.894099 -1.058907 0.516399 1.561301 4.196141 3.331493 -3.562855 -5.544444 0.000000 -0.000000 0.000000 0.202287 1.753642 7.490540 -1.615931 -2.992915 1.712062 -0.946775 -0.991519 -5.843395 -1.994816 -9.141436 -0.134825 4.310723 -8.275223 -0.517532 -29.505996 -6.592722 7.642471 -51.007911 -3.395480 10.336221 7.139468 -40.289865 14.141654 2.948800 -9.188267 -9.079010 23.048805 11.631874 5.617520 57.625656 7.046619 21.377048 -0.218670 54.696265 27.497868 2.337817 6.384763 7.737119 
0.033665 0.226420 0.997943 89.468157 0.704318 90.622923 7.301119 2.355175 -0.533251 -3.565274 -5.703086 4.174031 -0.512808 6.400227 -5.989200 0.000000 -0.000000 0.000000 -5.063187 -3.772291 -1.266985 0.558942 1.495296 4.545948 3.276003 -3.720193 -5.567991 0.000000 -0.000000 0.000000 0.039411 1.502382 8.368872 -1.745053 -2.576944 1.031237 -0.771190 -0.897521 -5.980315 -1.895958 -9.119511 -0.630152 4.290131 -8.075350 -0.164938 -29.373241 -5.944743 7.392945 -50.980880 -2.559862 9.787427 8.336459 -38.362402 12.137109 3.270087 -8.700904 -9.434177 23.448421 11.307327 5.718554 57.377969 6.853060 20.095273 -3.233952 48.503647 22.936120 2.625390 5.261929 8.414255 
0.033905 0.226167 0.997388 89.499430 0.753177 90.615401 7.311567 2.335158 -0.491007 -3.567974 -6.011096 4.101560 -0.522181 6.695512 -6.018989 0.000000 -0.000000 0.000000 -4.955955 -3.803547 -1.157460 0.499327 1.910862 4.307694 3.215732 -3.977872 -5.637676 0.000000 -0.000000 0.000000 0.042277 1.445213 8.740804 -1.824153 -2.463252 0.620792 -0.683366 -0.832223 -5.913254 -1.725597 -9.102813 -1.017161 4.248038 -7.727088 -0.033732 -29.267340 -5.229246 7.350782 -50.434751 -2.012886 9.296022 8.761789 -36.568036 11.528523 2.934508 -8.510500 -9.895989 23.553366 10.995109 5.822194 56.903171 6.694092 18.943412 -4.702581 42.443939 19.868391 2.757365 4.540137 8.126149 
0.034337 0.226130 0.997080 89.388218 0.845175 90.452735 7.373562 2.329346 -0.184869 -3.532103 -6.258205 3.945766 -0.605325 7.056215 -6.087271 0.000000 -0.000000 0.000000 -4.853105 -3.804776 -0.918445 0.520879 2.155412 4.180737 3.265114 -4.170086 -5.575934 0.000000 -0.000000 0.000000 0.187906 1.408984 9.098578 -1.994326 -2.239510 0.457789 -0.656458 -0.797167 -5.807230 -1.582862 -9.009800 -1.261512 4.244702 -7.457952 -0.135746 -29.134736 -4.659228 7.290585 -49.934753 -1.395001 8.866732 9.447075 -34.771156 10.413835 2.968978 -8.531078 -9.671920 23.672821 10.744902 5.933131 56.095757 6.694345 17.703382 -5.004599 36.525960 17.562511 2.401325 4.075257 7.158413 
0.034574 0.226500 0.996667 89.353936 0.879051 90.410773 7.384212 2.263157 -0.083163 -3.567763 -6.395726 3.845776 -0.690942 7.306860 -6.080260 0.000000 -0.000000 0.000000 -4.830414 -3.859860 -0.845294 0.543110 2.387205 4.101626 3.321023 -4.326374 -5.563671 0.000000 -0.000000 0.000000 0.295644 1.378428 9.302716 -2.142247 -2.054184 0.434562 -0.615926 -0.747765 -5.744720 -1.550270 -9.030778 -1.530233 4.251304 -7.147676 -0.307590 -29.365273 -4.044296 7.089304 -49.168011 -0.890503 8.327292 10.160987 -33.063070 8.991427 2.354595 -8.567787 -8.771930 23.891420 10.426683 6.042389 54.835691 6.436940 16.427628 -4.738127 31.642086 15.559900 3.319820 3.719487 6.156294 
0.034660 0.227929 0.996953 89.526765 0.583922 90.703621 6.783457 2.037472 -0.491659 -3.312250 -6.961034 3.914043 -0.581052 7.895385 -6.743487 0.000000 -0.000000 0.000000 -5.365240 -3.440158 -0.982658 0.963247 2.057747 3.881893 2.952995 -4.547938 -5.621836 0.000000 -0.000000 0.000000 -0.316673 1.775298 8.130882 -1.456602 -2.658795 3.356062 -1.213912 -0.156069 -7.286591 -0.585384 -8.786994 -2.241133 3.655853 -7.741482 -0.841642 -29.583674 -2.343308 3.670050 -48.661096 -0.822075 11.563457 13.234914 -28.180791 -0.060690 -4.654851 -10.873303 1.418933 25.862950 9.773423 4.318773 51.355593 4.655391 16.390488 -3.946483 26.077474 10.645994 5.280092 6.187569 7.831297 
0.034807 0.228192 0.996751 89.578000 0.549142 90.626419 6.722174 1.948708 -0.385440 -3.317070 -7.229178 3.845965 -0.564891 8.164830 -6.813484 0.000000 -0.000000 0.000000 -5.396642 -3.409843 -0.841966 0.898208 2.340578 3.743853 2.906036 -4.724515 -5.599266 0.000000 -0.000000 0.000000 -0.314192 1.769362 8.406415 -1.478660 -2.612612 3.361498 -1.248585 -0.066342 -7.235622 -0.590616 -8.930735 -2.249584 3.875128 -7.290751 -1.329116 -29.655770 -1.672631 3.351675 -47.945922 -0.538774 11.324785 13.546205 -27.389892 -0.764308 -4.915585 -11.030004 1.447315 25.859372 9.098682 4.150329 50.596720 3.795550 15.912618 -4.159365 23.632094 9.773078 5.762342 5.999485 8.014280 
0.034648 0.228229 0.996748 89.801329 0.516558 90.622316 6.679204 1.961640 -0.480188 -3.328285 -7.513260 3.885000 -0.667917 8.299760 -6.798570 0.000000 -0.000000 0.000000 -5.407898 -3.276828 -0.767469 0.895915 2.292266 3.666645 2.801230 -5.014540 -5.604144 0.000000 -0.000000 0.000000 -0.388394 1.671481 8.591813 -1.458321 -2.583435 3.437151 -1.235854 -0.024270 -7.125526 -0.560621 -8.858286 -2.272643 4.048144 -7.023410 -1.822853 -29.669432 -0.948510 2.955152 -47.419109 -0.341547 10.997735 13.832689 -27.270123 -1.365362 -5.143477 -11.054284 1.404498 25.834531 8.334150 3.935124 49.955134 2.795951 15.472058 -4.495767 22.474634 9.111814 5.965354 5.893286 8.208044 
